<svg xmlns="http://www.w3.org/2000/svg" xmlns:xlink="http://www.w3.org/1999/xlink" version="1.1" x="0px" y="0px" viewBox="0 0 53 66.25" enable-background="new 0 0 53 53" xml:space="preserve"><g><path d="M28.44251,34.93373l13.24834-9.75925V6.77264c0-0.96913-0.78868-1.75781-1.75834-1.75781h-26.8629   c-0.96966,0-1.75834,0.78868-1.75834,1.75781v18.41019l13.25683,9.75302C25.71289,35.77169,27.32415,35.74768,28.44251,34.93373z    M18.69579,19.06512c0-4.50333,3.12606-8.39419,7.97915-8.39419c3.80329,0,6.36092,2.66697,6.36092,6.3174   c0,3.27892-1.83636,5.20285-3.89086,5.20285c-0.87466,0-1.68351-0.59018-1.6177-1.92393h-0.08757   c-0.7648,1.2897-1.77055,1.92393-3.08201,1.92393c-1.26794,0-2.36127-1.02751-2.36127-2.75454   c0-2.71049,2.1426-5.18056,5.18109-5.18056c0.93994,0,1.77055,0.19637,2.33897,0.45909l-0.74304,3.95667   c-0.328,1.66122-0.06581,2.42601,0.65546,2.44831c1.11509,0.02176,2.36073-1.46484,2.36073-4.00072   c0-3.16958-1.90164-5.44274-5.28989-5.44274c-3.56339,0-6.55783,2.81982-6.55783,7.25734   c0,3.65043,2.38249,5.90237,5.61789,5.90237c1.24618,0,2.40479-0.26272,3.30067-0.76533l0.34976,0.93994   c-1.20213,0.63371-2.42655,0.87413-3.89086,0.87413C21.73428,25.88514,18.69579,23.26222,18.69579,19.06512z"/><polygon points="9.13736,16.35649 4.06401,19.83682 9.13736,23.57151  "/><path d="M23.43955,19.34907c0,0.96223,0.48085,1.66175,1.44255,1.66175c1.26794,0,2.42654-1.6177,2.66697-2.97321l0.45909-2.47007   c-0.21866-0.06581-0.59018-0.15285-1.09279-0.15285C24.99144,15.41469,23.43955,17.22876,23.43955,19.34907z"/><polygon points="43.86477,16.36027 43.86477,23.56779 48.93599,19.83682  "/><path d="M29.73168,36.68677c-1.91247,1.38684-4.51283,1.41528-6.45009,0.00531l-4.50619-3.31434L3.46062,47.71098   c0.39898,0.17441,0.83764,0.27419,1.30025,0.27419h43.47826c0.4626,0,0.90133-0.09971,1.30031-0.27413L34.2248,33.37747   L29.73168,36.68677z"/><path d="M50.73905,21.20925C30.54703,36.08813,37.51128,30.95638,36.0047,32.06654l15.11741,14.14901   C51.35551,45.76654,51.5,45.2644,51.5,44.7243V23.30043C51.5,22.51368,51.22899,21.78251,50.73905,21.20925z"/><path d="M2.26102,21.20911C1.77101,21.78245,1.5,22.51368,1.5,23.30043V44.7243c0,0.5401,0.14449,1.04224,0.37789,1.49125   l15.11655-14.14768C-4.32495,16.35516,4.51156,22.8678,2.26102,21.20911z"/></g><text x="0" y="68" fill="#000000" font-size="5px" font-weight="bold" font-family="'Helvetica Neue', Helvetica, Arial-Unicode, Arial, Sans-serif">Created by Vectors Point</text><text x="0" y="73" fill="#000000" font-size="5px" font-weight="bold" font-family="'Helvetica Neue', Helvetica, Arial-Unicode, Arial, Sans-serif">from the Noun Project</text></svg>