<svg xmlns="http://www.w3.org/2000/svg" xmlns:xlink="http://www.w3.org/1999/xlink" xml:space="preserve" style="shape-rendering:geometricPrecision;text-rendering:geometricPrecision;image-rendering:optimizeQuality;" viewBox="0 0 100 125" x="0px" y="0px" fill-rule="evenodd" clip-rule="evenodd"><defs><style type="text/css">
   
    .fil0 {fill:black}
   
  </style></defs><g><path class="fil0" d="M9.92252 18.1454l-4.92051 12.9403 2.62443 7.83904 18.2612 -4.47996 1.42088 -10.3265c8.73668,-3.1642 36.6464,-3.1642 45.383,0l1.42206 10.3265 18.2612 4.47996 2.62443 -7.83904 -4.92051 -12.9403c-18.0781,-8.09298 -62.078,-8.09298 -80.1561,0zm32.0353 15.6934l0 -7.43982 -12.4655 0 0 10.858 -19.1009 32.5703 0 18.0958 79.2172 0 0 -18.0958 -19.1009 -32.5703 0 -10.858 -12.4655 0 0 7.43982 -16.0844 0zm-8.04219 10.2887l7.64061 0 0 5.82997 -7.64061 0 0 -5.82997zm24.5293 17.8844l7.63943 0 0 5.82997 -7.63943 0 0 -5.82997zm0 -8.9422l7.63943 0 0 5.82997 -7.63943 0 0 -5.82997zm-12.2647 8.9422l7.64061 0 0 5.82997 -7.64061 0 0 -5.82997zm0 -8.9422l7.64061 0 0 5.82997 -7.64061 0 0 -5.82997zm-12.2647 8.9422l7.64061 0 0 5.82997 -7.64061 0 0 -5.82997zm0 -8.9422l7.64061 0 0 5.82997 -7.64061 0 0 -5.82997zm24.5293 -8.9422l7.63943 0 0 5.82997 -7.63943 0 0 -5.82997zm-12.2647 0l7.64061 0 0 5.82997 -7.64061 0 0 -5.82997z"/></g><text x="0" y="115" fill="#000000" font-size="5px" font-weight="bold" font-family="'Helvetica Neue', Helvetica, Arial-Unicode, Arial, Sans-serif">Created by Aulia</text><text x="0" y="120" fill="#000000" font-size="5px" font-weight="bold" font-family="'Helvetica Neue', Helvetica, Arial-Unicode, Arial, Sans-serif">from the Noun Project</text></svg>